<svg xmlns="http://www.w3.org/2000/svg" xmlns:xlink="http://www.w3.org/1999/xlink" viewBox="0 0 118.21 67.77"><defs><style>.cls-1{fill:none;}.cls-2{opacity:0.24;}.cls-3{clip-path:url(#clip-path);}.cls-4{fill:#d1b22e;}</style><clipPath id="clip-path" transform="translate(-168.74 -4.21)"><path class="cls-1" d="M26.81,53.62A26.81,26.81,0,0,1,26.81,0h222.6a26.81,26.81,0,0,1,0,53.62Z"/></clipPath></defs><g id="Layer_2" data-name="Layer 2"><g id="Layer_1-2" data-name="Layer 1"><g class="cls-2"><g class="cls-3"><path class="cls-4" d="M283.53,19.81l-.38-.08a.53.53,0,0,1-.42-.47A14.13,14.13,0,0,0,275.13,8a1.34,1.34,0,0,0,.07-.18,2.81,2.81,0,1,0-5.4-1.53,1.46,1.46,0,0,0-.05.2,14.12,14.12,0,0,0-12.38,5.66.5.5,0,0,1-.6.18c-.12,0-.24-.09-.37-.12a4.69,4.69,0,0,0-5.79,3.24,5.21,5.21,0,0,0-.17,1.4,4.69,4.69,0,0,0,3.41,4.39l.37.08a.56.56,0,0,1,.44.5,14.12,14.12,0,0,0,8.5,11.69.48.48,0,0,0,.65-.3l.82-2.91a1,1,0,0,0-.23-1,3.32,3.32,0,1,1,3.37.95,1,1,0,0,0-.7.7l-.82,2.91a.47.47,0,0,0,.39.59A14.1,14.1,0,0,0,280,28.92a.55.55,0,0,1,.63-.19l.36.11A4.67,4.67,0,0,0,286.14,27a4.46,4.46,0,0,0,.63-1.36A4.69,4.69,0,0,0,283.53,19.81Z" transform="translate(-168.74 -4.21)"/><path class="cls-4" d="M245.19,36.1c-.22,0-.44.09-.65.15a.86.86,0,0,1-1-.39,23.69,23.69,0,0,0-19.91-11.18c0-.11,0-.22,0-.33a4.71,4.71,0,1,0-9.24,1.79c0,.11,0,.22.08.33a23.67,23.67,0,0,0-14.27,17.82.88.88,0,0,1-.76.73q-.33,0-.66.09a7.87,7.87,0,0,0-6.22,9.23,8.48,8.48,0,0,0,.79,2.22,7.86,7.86,0,0,0,8.43,4l.62-.14a.89.89,0,0,1,1,.41A23.68,23.68,0,0,0,225,71.93a.8.8,0,0,0,.74-.94l-1-5a1.71,1.71,0,0,0-1.07-1.27,5.58,5.58,0,1,1,5.77-1.12,1.73,1.73,0,0,0-.52,1.58l1,5a.79.79,0,0,0,1,.59,23.67,23.67,0,0,0,15.85-18.36.91.91,0,0,1,.8-.77l.62-.09a7.88,7.88,0,0,0,6.3-6.71,7.65,7.65,0,0,0-.08-2.52A7.87,7.87,0,0,0,245.19,36.1Z" transform="translate(-168.74 -4.21)"/><path class="cls-4" d="M200.58,25.42l-.22,0a.29.29,0,0,1-.24-.25,7.82,7.82,0,0,0-4.49-6.05.38.38,0,0,0,0-.1,1.55,1.55,0,1,0-3-.71s0,.08,0,.11a7.8,7.8,0,0,0-6.69,3.44.29.29,0,0,1-.33.12l-.21-.06a2.61,2.61,0,0,0-3.12,1.94,2.94,2.94,0,0,0-.06.78,2.61,2.61,0,0,0,2,2.34l.21,0a.31.31,0,0,1,.25.27,7.78,7.78,0,0,0,5,6.24.26.26,0,0,0,.35-.18l.37-1.63a.55.55,0,0,0-.15-.53,1.83,1.83,0,0,1-.41-2,1.74,1.74,0,0,1,.64-.82,1.86,1.86,0,0,1,1.28-.34,1.84,1.84,0,0,1,1.43,1,1.78,1.78,0,0,1,.15,1.25,1.82,1.82,0,0,1-1.2,1.32.61.61,0,0,0-.37.41l-.38,1.63a.27.27,0,0,0,.23.32,7.82,7.82,0,0,0,7.25-3.4.29.29,0,0,1,.34-.12l.2,0a2.59,2.59,0,0,0,2.8-1.17,2.49,2.49,0,0,0,.31-.77A2.58,2.58,0,0,0,200.58,25.42Z" transform="translate(-168.74 -4.21)"/><path class="cls-4" d="M178,44.13l-.11,0a.16.16,0,0,1-.18,0,4.23,4.23,0,0,0-3.7-1.74s0,0,0-.06a.84.84,0,0,0-1.63.44s0,0,0,.06A4.23,4.23,0,0,0,170,46.17a.16.16,0,0,1-.13.14l-.11,0a1.4,1.4,0,0,0-1,1.73,1,1,0,0,0,.17.38,1.4,1.4,0,0,0,1.55.61l.11,0a.16.16,0,0,1,.19.06,4.26,4.26,0,0,0,4,1.7.15.15,0,0,0,.12-.18l-.24-.87a.31.31,0,0,0-.21-.22,1,1,0,0,1-.71-.84,1,1,0,0,1,.1-.55,1,1,0,0,1,1.47-.38,1,1,0,0,1,.16,1.5.31.31,0,0,0-.08.29l.24.87a.14.14,0,0,0,.19.1,4.28,4.28,0,0,0,2.6-3.49.17.17,0,0,1,.13-.15l.11,0a1.42,1.42,0,0,0,1-1.28,1.38,1.38,0,0,0,0-.45A1.41,1.41,0,0,0,178,44.13Z" transform="translate(-168.74 -4.21)"/></g></g></g></g></svg>