<svg xmlns="http://www.w3.org/2000/svg" xmlns:xlink="http://www.w3.org/1999/xlink" viewBox="0 0 347.22 60.46"><defs><style>.cls-1{fill:none;}.cls-2{opacity:0.43;}.cls-3{clip-path:url(#clip-path);}.cls-4{fill:#cb4342;}</style><clipPath id="clip-path" transform="translate(12.29 -19.52)"><rect class="cls-1" x="129.39" y="-129.39" width="63.86" height="322.65" rx="11.51" transform="translate(193.25 -129.39) rotate(90)"/></clipPath></defs><g id="Layer_2" data-name="Layer 2"><g id="Layer_1-2" data-name="Layer 1"><g class="cls-2"><g class="cls-3"><path class="cls-4" d="M328.36,24.32l-.34.18a.48.48,0,0,1-.6-.07,13.76,13.76,0,0,0-12.83-3.21,1.42,1.42,0,0,0-.08-.18,2.72,2.72,0,1,0-4.88,2.42c0,.05.06.11.09.17a13.73,13.73,0,0,0-5.26,12.13.49.49,0,0,1-.31.52l-.35.15a4.57,4.57,0,0,0-2.07,6.11,5,5,0,0,0,.78,1.12,4.57,4.57,0,0,0,5.32,1,3.3,3.3,0,0,0,.32-.18.54.54,0,0,1,.64.08,13.71,13.71,0,0,0,13.74,2.91.46.46,0,0,0,.27-.64l-1.3-2.63a1,1,0,0,0-.79-.55,3.23,3.23,0,1,1,3.05-1.5,1,1,0,0,0-.05,1l1.3,2.63a.47.47,0,0,0,.67.18,13.71,13.71,0,0,0,6.05-12.68.53.53,0,0,1,.33-.55,2.41,2.41,0,0,0,.33-.15,4.56,4.56,0,0,0,2.5-4.71,4.47,4.47,0,0,0-.43-1.39A4.54,4.54,0,0,0,328.36,24.32Z" transform="translate(12.29 -19.52)"/><path class="cls-4" d="M39.14,63.9l.34,0a.47.47,0,0,0,.42-.35,12.24,12.24,0,0,1,8-8.73.51.51,0,0,1,0-.17A2.43,2.43,0,1,1,52.67,54a1.09,1.09,0,0,1,0,.18,12.26,12.26,0,0,1,9.91,6.44.45.45,0,0,0,.49.24,1.86,1.86,0,0,1,.34-.06A4.06,4.06,0,0,1,68,64.33a4.5,4.5,0,0,1,0,1.22,4.08,4.08,0,0,1-3.49,3.34l-.33,0a.49.49,0,0,0-.44.37,12.25,12.25,0,0,1-8.8,9,.41.41,0,0,1-.51-.35L54,75.29a.86.86,0,0,1,.32-.79,2.9,2.9,0,0,0-1.86-5.14,2.87,2.87,0,0,0-2.38,1.33,2.89,2.89,0,0,0,1.22,4.19.89.89,0,0,1,.51.69l.33,2.6a.42.42,0,0,1-.41.47A12.26,12.26,0,0,1,41,72.18a.47.47,0,0,0-.52-.25l-.32.06A4.09,4.09,0,0,1,36,69.71a3.93,3.93,0,0,1-.36-1.25A4.07,4.07,0,0,1,39.14,63.9Z" transform="translate(12.29 -19.52)"/><path class="cls-4" d="M237.13,50.26a4.16,4.16,0,0,1,.5.16.66.66,0,0,0,.79-.24,18.69,18.69,0,0,1,16.39-7.41l.06-.25a3.71,3.71,0,1,1,7.13,2,1.83,1.83,0,0,1-.08.25,18.65,18.65,0,0,1,10,15,.68.68,0,0,0,.55.62l.51.12a6.19,6.19,0,0,1,4.24,7.67,6.35,6.35,0,0,1-.77,1.69,6.18,6.18,0,0,1-6.89,2.56c-.16,0-.32-.1-.47-.15a.73.73,0,0,0-.84.25,18.65,18.65,0,0,1-17.69,7.23A.63.63,0,0,1,250,79l1.1-3.84a1.35,1.35,0,0,1,.93-.92,4.41,4.41,0,0,0,3.16-3.65,4.42,4.42,0,0,0-2.67-4.64,4.39,4.39,0,0,0-4.94,7,1.39,1.39,0,0,1,.3,1.28l-1.11,3.84a.62.62,0,0,1-.85.39A18.65,18.65,0,0,1,234.77,63a.72.72,0,0,0-.57-.66l-.49-.11a6.21,6.21,0,0,1-4.48-5.7,6.08,6.08,0,0,1,.24-2A6.19,6.19,0,0,1,237.13,50.26Z" transform="translate(12.29 -19.52)"/><path class="cls-4" d="M-7.79,45.18l.26.1a.37.37,0,0,0,.44-.1A10.12,10.12,0,0,1,2.05,41.7a.57.57,0,0,1,0-.14,2,2,0,1,1,3.8,1.34.78.78,0,0,1,0,.14,10.14,10.14,0,0,1,4.92,8.45.36.36,0,0,0,.28.35l.27.09a3.37,3.37,0,0,1,2,4.3,3.44,3.44,0,0,1-.47.89,3.37,3.37,0,0,1-3.83,1.16l-.25-.1a.4.4,0,0,0-.46.11,10.15,10.15,0,0,1-9.84,3.35.35.35,0,0,1-.25-.45l.72-2a.75.75,0,0,1,.54-.47A2.38,2.38,0,0,0,1.35,56.8a2.35,2.35,0,0,0-.12-1.34A2.4,2.4,0,0,0,.05,54.19a2.36,2.36,0,0,0-2.25.09,2.39,2.39,0,0,0-1,1.26,2.4,2.4,0,0,0,.39,2.29.73.73,0,0,1,.12.71l-.72,2a.34.34,0,0,1-.48.19A10.13,10.13,0,0,1-9.49,52a.41.41,0,0,0-.29-.38l-.26-.08a3.38,3.38,0,0,1-2.25-3.24,3.31,3.31,0,0,1,.2-1.06A3.37,3.37,0,0,1-7.79,45.18Z" transform="translate(12.29 -19.52)"/><path class="cls-4" d="M17.4,61.48l.13.06a.22.22,0,0,0,.24,0,5.32,5.32,0,0,1,4.81-1.84.19.19,0,0,1,0-.07A1.06,1.06,0,0,1,24,58.93a1.07,1.07,0,0,1,.65,1.36l0,.07a5.33,5.33,0,0,1,2.59,4.45.19.19,0,0,0,.15.18l.14.05a1.77,1.77,0,0,1,1.08,2.26,1.92,1.92,0,0,1-.25.47,1.76,1.76,0,0,1-2,.61l-.14,0a.2.2,0,0,0-.24.06,5.35,5.35,0,0,1-5.18,1.76.2.2,0,0,1-.13-.24L21,68.83a.4.4,0,0,1,.28-.24,1.28,1.28,0,0,0,1-1,1.23,1.23,0,0,0-.07-.71,1.27,1.27,0,0,0-.61-.66,1.25,1.25,0,0,0-1.74.71,1.27,1.27,0,0,0,.2,1.21.37.37,0,0,1,.07.36l-.38,1.08a.18.18,0,0,1-.25.1,5.32,5.32,0,0,1-2.93-4.62.2.2,0,0,0-.15-.2l-.14,0A1.79,1.79,0,0,1,15,63.12a2.13,2.13,0,0,1,.1-.55A1.78,1.78,0,0,1,17.4,61.48Z" transform="translate(12.29 -19.52)"/><path class="cls-4" d="M22.79,51.44h.08a.1.1,0,0,0,.1-.08,2.87,2.87,0,0,1,2-2v0a.57.57,0,1,1,1.13-.1v0a2.88,2.88,0,0,1,2.25,1.62.1.1,0,0,0,.11.06h.08a1,1,0,0,1,1,.87,1.42,1.42,0,0,1,0,.29,1,1,0,0,1-.86.74h-.07a.12.12,0,0,0-.11.08,2.86,2.86,0,0,1-2.15,2,.1.1,0,0,1-.12-.09l-.05-.61a.21.21,0,0,1,.09-.18.69.69,0,0,0,.07-1,.73.73,0,0,0-.45-.19.67.67,0,0,0-.57.28.72.72,0,0,0-.13.45.7.7,0,0,0,.37.55.21.21,0,0,1,.11.16l.05.62a.1.1,0,0,1-.1.1,2.87,2.87,0,0,1-2.45-1.63.11.11,0,0,0-.12-.06H23a1,1,0,0,1-1-.58,1,1,0,0,1,.8-1.32Z" transform="translate(12.29 -19.52)"/><path class="cls-4" d="M15.44,44.06l0,0a.06.06,0,0,0,.07,0A1.52,1.52,0,0,1,17,43.64v0a.31.31,0,0,1,.41-.16.3.3,0,0,1,.16.4v0a1.56,1.56,0,0,1,.66,1.35.05.05,0,0,0,0,.06l0,0a.52.52,0,0,1,.27.68.6.6,0,0,1-.09.13.5.5,0,0,1-.6.13h0a0,0,0,0,0-.07,0,1.58,1.58,0,0,1-1.55.4.05.05,0,0,1,0-.07l.13-.31a.11.11,0,0,1,.09-.06.36.36,0,0,0,.3-.27.34.34,0,0,0,0-.2.36.36,0,0,0-.17-.21.34.34,0,0,0-.35,0,.37.37,0,0,0-.17.18.39.39,0,0,0,0,.35.12.12,0,0,1,0,.11l-.14.31a0,0,0,0,1-.07,0,1.56,1.56,0,0,1-.76-1.4.06.06,0,0,0,0-.07h0a.52.52,0,0,1-.31-.52.42.42,0,0,1,0-.16A.52.52,0,0,1,15.44,44.06Z" transform="translate(12.29 -19.52)"/><path class="cls-4" d="M286.75,29a.4.4,0,0,1,.15,0,.22.22,0,0,0,.22-.1,5.3,5.3,0,0,1,4.34-2.76.22.22,0,0,1,0-.08,1,1,0,0,1,1.19-.9,1.06,1.06,0,0,1,.91,1.19s0,0,0,.08A5.34,5.34,0,0,1,297,30.27a.2.2,0,0,0,.18.15h.15A1.76,1.76,0,0,1,298.67,33a1.77,1.77,0,0,1-1.84,1l-.14,0a.21.21,0,0,0-.23.11,5.33,5.33,0,0,1-4.72,2.76.18.18,0,0,1-.18-.2l.16-1.14a.37.37,0,0,1,.22-.29,1.25,1.25,0,0,0,.75-1.16,1.23,1.23,0,0,0-.2-.68,1.25,1.25,0,0,0-.74-.53,1.24,1.24,0,0,0-1.15.28,1.22,1.22,0,0,0-.41.76,1.26,1.26,0,0,0,.44,1.14.4.4,0,0,1,.14.35l-.16,1.13a.17.17,0,0,1-.22.15,5.32,5.32,0,0,1-3.79-3.94.21.21,0,0,0-.19-.16l-.14,0a1.75,1.75,0,0,1-1.5-1.43,1.8,1.8,0,0,1,0-.57A1.77,1.77,0,0,1,286.75,29Z" transform="translate(12.29 -19.52)"/></g></g></g></g></svg>