<svg xmlns="http://www.w3.org/2000/svg" viewBox="0 0 58.54 25.36"><defs><style>.cls-1{fill:#a21e22;}.cls-2{fill:#cb4342;}</style></defs><g id="Layer_2" data-name="Layer 2"><g id="Layer_1-2" data-name="Layer 1"><path class="cls-1" d="M55.79,4.09l-1.72-.64L52.15,4.6,50.91,3.23l-2.2.4c1.87-2.29,3.41-3.82,4-3.61C53.79.35,54.85,1.87,55.79,4.09Z"/><path class="cls-2" d="M57.7,25.36,37.32,19.92S44.06,9.37,48.71,3.63l2.2-.4L52.15,4.6l1.92-1.15,1.72.64C58.07,9.49,59.56,19,57.7,25.36Z"/><path class="cls-1" d="M2.75,4.09l1.72-.64L6.39,4.6,7.63,3.23l2.2.4C8,1.34,6.42-.19,5.77,0,4.75.35,3.69,1.87,2.75,4.09Z"/><path class="cls-2" d="M.84,25.36l20.38-5.44S14.48,9.37,9.83,3.63l-2.2-.4L6.39,4.6,4.47,3.45l-1.72.64C.47,9.49-1,19,.84,25.36Z"/></g></g></svg>