<svg xmlns="http://www.w3.org/2000/svg" viewBox="0 0 17.26 30.95"><defs><style>.cls-1{fill:#bea02f;}.cls-2{fill:#f9f080;}</style></defs><g id="Layer_2" data-name="Layer 2"><g id="Layer_1-2" data-name="Layer 1"><path class="cls-1" d="M1.66,27l2.43-4.25a.45.45,0,0,0,0-.41L2,18a.44.44,0,0,1,.49-.63l4.79,1a.44.44,0,0,0,.4-.11l3.54-3.38a.44.44,0,0,1,.75.27L12.49,20a.43.43,0,0,0,.23.35L17,22.62a.46.46,0,0,1,0,.81l-4.46,2a.46.46,0,0,0-.26.33l-.87,4.81a.44.44,0,0,1-.77.22L7.35,27.18A.45.45,0,0,0,7,27l-4.85.66A.45.45,0,0,1,1.66,27Z"/><path class="cls-2" d="M.06,25.43l2.43-4.24a.48.48,0,0,0,0-.42L.38,16.36a.44.44,0,0,1,.49-.63l4.79,1a.44.44,0,0,0,.4-.11L9.6,13.23a.44.44,0,0,1,.75.28l.54,4.86a.43.43,0,0,0,.23.34L15.43,21a.45.45,0,0,1,0,.8l-4.46,2a.48.48,0,0,0-.26.33L9.81,29A.44.44,0,0,1,9,29.2L5.75,25.59a.45.45,0,0,0-.39-.15L.51,26.1A.45.45,0,0,1,.06,25.43Z"/><path class="cls-1" d="M9,10.57l.32-3.05a.29.29,0,0,0-.1-.25l-2.33-2A.28.28,0,0,1,7,4.78l3-.64a.27.27,0,0,0,.2-.17l1.18-2.84a.29.29,0,0,1,.51,0l1.54,2.66a.27.27,0,0,0,.22.15l3.07.24a.28.28,0,0,1,.18.47L14.88,6.91a.28.28,0,0,0-.06.25l.71,3a.28.28,0,0,1-.39.33L12.33,9.23a.27.27,0,0,0-.26,0L9.45,10.85A.29.29,0,0,1,9,10.57Z"/><path class="cls-2" d="M7.87,9.62l.32-3.06a.26.26,0,0,0-.1-.25l-2.33-2a.28.28,0,0,1,.12-.49l3-.64A.3.3,0,0,0,9.1,3L10.28.17a.28.28,0,0,1,.5,0l1.54,2.67a.3.3,0,0,0,.22.14l3.07.24a.28.28,0,0,1,.18.47L13.74,6a.26.26,0,0,0-.07.25l.71,3a.28.28,0,0,1-.39.32L11.18,8.27a.3.3,0,0,0-.26,0L8.3,9.89A.28.28,0,0,1,7.87,9.62Z"/></g></g></svg>