<svg xmlns="http://www.w3.org/2000/svg" viewBox="0 0 40.88 30.09"><defs><style>.cls-1{fill:#d1b22e;}</style></defs><g id="Layer_2" data-name="Layer 2"><g id="Layer_1-2" data-name="Layer 1"><path class="cls-1" d="M25.93,16.11h-.31a.41.41,0,0,1-.39-.29,11.06,11.06,0,0,0-7.67-7.4c0-.05,0-.1,0-.16A2.19,2.19,0,1,0,13.19,8a.75.75,0,0,0,0,.15,11.07,11.07,0,0,0-8.55,6.37.4.4,0,0,1-.43.24l-.31,0a3.68,3.68,0,0,0-.46,7.34h.29a.45.45,0,0,1,.42.31,11,11,0,0,0,8.43,7.55.36.36,0,0,0,.44-.34l.15-2.36a.81.81,0,0,0-.33-.7,2.61,2.61,0,0,1-1-2.66,2.52,2.52,0,0,1,.7-1.29,2.6,2.6,0,1,1,3.08,4.13.78.78,0,0,0-.42.65L15,29.7a.36.36,0,0,0,.39.39,11,11,0,0,0,9.32-6.43.44.44,0,0,1,.46-.25,1.36,1.36,0,0,0,.29,0,3.65,3.65,0,0,0,3.63-2.29A3.33,3.33,0,0,0,29.36,20,3.67,3.67,0,0,0,25.93,16.11Zm-9.74-8-.81-.08-.81,0a.11.11,0,0,1-.11-.15A1,1,0,0,1,16.32,8,.11.11,0,0,1,16.19,8.14Z"/><path class="cls-1" d="M37.87,1.81l-.15.09a.23.23,0,0,1-.27,0A6.08,6.08,0,0,0,31.68.71a.59.59,0,0,1,0-.08A1.22,1.22,0,0,0,29.51,1.8s0,.05,0,.08a6.1,6.1,0,0,0-2.09,5.5.23.23,0,0,1-.13.24l-.16.08a2,2,0,0,0-.79,2.76,2.19,2.19,0,0,0,.37.48,2,2,0,0,0,2.38.32l.14-.09a.26.26,0,0,1,.29,0,6.09,6.09,0,0,0,6.18,1,.2.2,0,0,0,.1-.28l-.63-1.15a.45.45,0,0,0-.36-.23,1.44,1.44,0,0,1-1.28-.93,1.41,1.41,0,0,1,0-.81,1.39,1.39,0,0,1,.57-.87,1.46,1.46,0,0,1,1.35-.17,1.43,1.43,0,0,1,.74,2.05.42.42,0,0,0,0,.43l.63,1.14a.21.21,0,0,0,.3.07,6.11,6.11,0,0,0,2.44-5.77.23.23,0,0,1,.13-.25l.15-.07a2,2,0,0,0-2-3.56ZM31,1a3,3,0,0,0-.4.2c-.14.07-.26.15-.39.23a.07.07,0,0,1-.1,0A.54.54,0,0,1,30.34.8.53.53,0,0,1,31,.88.07.07,0,0,1,31,1Z"/></g></g></svg>